<svg width="33" height="24" viewBox="0 0 33 24" fill="none" xmlns="http://www.w3.org/2000/svg">
<path d="M11.4227 12L11.4227 9.27879C11.4227 6.36339 13.7861 4 16.7015 4V4C19.6169 4 21.9803 6.3634 21.9803 9.27879L21.9803 12" stroke="white" stroke-width="2" stroke-linecap="round"/>
<path d="M5.75217 12.5627C5.93852 10.8682 6.03169 10.021 6.60141 9.51049C7.17112 9 8.02348 9 9.72819 9H23.6749C25.3796 9 26.232 9 26.8017 9.51049C27.3714 10.021 27.4646 10.8682 27.6509 12.5627L28.3348 18.7814C28.4487 19.8169 28.5057 20.3347 28.2076 20.6673C27.9095 21 27.3886 21 26.3468 21H7.05629C6.0145 21 5.49361 21 5.19553 20.6673C4.89745 20.3347 4.95439 19.8169 5.06827 18.7814L5.75217 12.5627Z" stroke="white" stroke-width="2"/>
</svg>
