<svg width="1920" height="374" viewBox="0 0 1920 374" fill="none" xmlns="http://www.w3.org/2000/svg">
<g clip-path="url(#clip0_1_318)">
<path d="M-28.8961 315.184C-20.2373 312.15 -11.5717 309.221 -3.05476 305.798C5.32416 302.407 13.3175 298.135 20.7926 293.054C35.0204 283.345 47.6065 271.126 63.1287 263.327C70.8666 259.233 79.411 256.887 88.1672 256.451C88.3106 256.462 88.4476 256.516 88.5591 256.608C88.6706 256.7 88.751 256.824 88.7891 256.963C88.8273 257.103 88.8212 257.25 88.7718 257.385C88.7225 257.521 88.6322 257.637 88.5137 257.718L65.8818 268.571C58.339 272.206 50.9571 276.026 43.3252 279.602C42.2538 280.22 41.2149 278.468 42.3548 277.921C49.8856 274.265 57.543 270.923 65.151 267.305L87.8428 256.556C88.0465 256.908 88.0647 257.368 88.1773 257.801C71.461 258.156 56.9486 267.752 44.5075 278.034C37.6481 283.71 30.9943 289.599 23.7529 294.803C16.5389 299.9 8.76645 304.156 0.584979 307.487C-8.85975 311.297 -18.5218 314.547 -28.3516 317.222C-29.5992 317.582 -30.0719 315.669 -28.8602 315.247L-28.8961 315.184Z" fill="black" fill-opacity="0.08"/>
<path d="M-27.2245 314.607C-13.0329 312.638 -1.02831 302.885 13.7409 303.821C20.886 304.557 27.917 306.185 34.6702 308.669C41.7611 311.008 48.7134 313.756 55.4921 316.9C63.1036 320.509 70.5073 324.548 77.6673 328.998C77.8347 329.099 77.9654 329.252 78.0399 329.433C78.1143 329.615 78.1285 329.815 78.0805 330.005C78.0324 330.194 77.9245 330.362 77.773 330.485C77.6215 330.607 77.4344 330.677 77.2395 330.684C69.6537 330.581 61.8619 330.598 55.053 326.893C48.2441 323.188 43.3261 316.62 36.5344 312.85C36.351 312.747 36.2155 312.575 36.1577 312.372C36.0999 312.169 36.1246 311.952 36.2263 311.769C36.328 311.585 36.4984 311.45 36.7 311.394C36.9017 311.337 37.118 311.363 37.3014 311.466C43.8171 315.092 49.0162 320.528 55.4116 324.278C61.8071 328.029 69.7729 328.742 77.3208 328.921C77.1743 329.476 77.0071 330.043 76.8725 330.619C70.6378 326.848 64.1753 323.473 57.5234 320.514C50.7749 317.403 43.8567 314.681 36.8027 312.363C30.0822 309.938 23.154 308.149 16.109 307.018C9.12272 306.243 2.06319 307.143 -4.48904 309.642C-11.8451 312.174 -19.0857 315.524 -26.945 315.995C-27.7102 316.049 -27.8972 314.774 -27.1354 314.666L-27.2245 314.607Z" fill="black" fill-opacity="0.08"/>
<path d="M5.61319 303.588C11.8595 305.318 18.2262 306.563 24.657 307.312C30.6255 307.854 36.6361 307.395 42.4418 305.953C53.217 303.301 63.2321 298.238 73.98 295.491C79.8217 293.871 85.9322 293.427 91.9602 294.185L91.474 295.96C75.923 291.79 59.4256 293.445 45.0737 300.615C40.9978 302.64 37.1778 305.143 33.6933 308.071C33.5803 308.191 33.4428 308.285 33.29 308.346C33.1372 308.407 32.9728 308.435 32.8081 308.426C32.6434 308.418 32.4823 308.373 32.3358 308.297C32.1893 308.22 32.0608 308.113 31.9592 307.982C31.8575 307.851 31.7852 307.699 31.7471 307.538C31.7089 307.377 31.7059 307.21 31.7382 307.048C31.7705 306.886 31.8374 306.733 31.9342 306.599C32.0311 306.466 32.1556 306.356 32.2993 306.275C45.3796 296.192 61.625 291.106 78.1536 291.92C82.8046 292.173 87.4197 292.911 91.9243 294.123C93.0972 294.442 92.5804 296.068 91.4381 295.898C80.1609 294.302 69.2669 298.461 58.924 302.386C48.581 306.31 37.6464 310.16 26.1521 309.188C19.0658 308.372 12.062 306.925 5.22375 304.864C4.356 304.646 4.7095 303.308 5.57725 303.526L5.61319 303.588Z" fill="black" fill-opacity="0.08"/>
<path d="M-28.3025 315.118C-23.3572 313.824 -18.1773 313.671 -13.1506 314.671C-7.89482 315.557 -2.72149 316.893 2.31267 318.663C13.6864 322.472 25.2508 326.088 36.2508 330.914C42.0723 333.279 47.5422 336.443 52.5027 340.317C53.0648 340.767 52.2814 341.552 51.74 341.09C47.3343 337.66 42.4642 334.881 37.2792 332.838C32.1288 330.721 26.7321 329.272 21.4628 327.472L4.32098 321.571C-0.48168 319.852 -5.38049 318.421 -10.3493 317.286C-13.2138 316.645 -16.1281 316.263 -19.0573 316.144C-21.9694 316.132 -24.8758 316.366 -27.7455 316.844C-27.9593 316.875 -28.1774 316.826 -28.3583 316.706C-28.5393 316.587 -28.6705 316.405 -28.7272 316.195C-28.7838 315.985 -28.7619 315.762 -28.6656 315.569C-28.5693 315.375 -28.4053 315.224 -28.2047 315.145L-28.3025 315.118Z" fill="black" fill-opacity="0.08"/>
</g>
<g clip-path="url(#clip1_1_318)">
<path d="M1823.91 302.979C1825.19 299.637 1827.18 296.616 1829.75 294.13C1832.32 291.644 1835.4 289.753 1838.78 288.59C1841.03 287.812 1843.17 286.626 1845.35 285.641C1843.35 284.708 1841.19 284.185 1838.99 284.104C1833.79 283.918 1828.86 281.696 1825.26 277.914C1824.56 276.855 1824.09 275.66 1823.89 274.407C1823.68 273.154 1823.74 271.872 1824.06 270.645C1824.72 268.258 1827.54 269.332 1829.34 270.082C1835.16 272.401 1841.54 274.072 1846.55 277.633C1853.1 282.381 1860.25 282.371 1867.49 283.279C1855.96 278.245 1846.3 269.733 1839.84 258.934C1838.38 256.403 1836.76 256.441 1834.47 257.443C1829.01 259.78 1822.85 259.864 1817.32 257.677C1811.79 255.491 1807.34 251.209 1804.95 245.764C1804.41 244.584 1804.18 242.51 1804.86 241.796C1805.44 241.415 1806.1 241.161 1806.79 241.049C1807.48 240.936 1808.19 240.969 1808.86 241.145C1812.61 241.837 1816.3 242.83 1820.01 243.716L1820.69 243.791L1820.09 243.423C1819.47 242.635 1818.8 241.897 1818.07 241.214C1813.21 236.88 1809.73 231.211 1808.06 224.914C1807.87 223.469 1807.94 222.003 1808.26 220.582C1809.46 220.732 1810.84 220.506 1811.82 221.006C1818.64 224.205 1824.63 228.929 1829.33 234.812C1828.34 230.633 1827.67 226.386 1827.32 222.107C1827.24 215.713 1825.2 209.494 1821.47 204.3C1819.45 200.682 1817.62 196.963 1815.98 193.158C1815.47 192.283 1813.96 191.122 1813.22 191.301C1798.88 194.816 1787.58 186.53 1775.42 181.594C1772.85 180.602 1772.92 178.077 1775.52 176.701C1777.67 175.507 1780.04 174.754 1782.49 174.488C1792.06 173.891 1801.61 176.07 1809.98 180.765C1808.29 175.642 1806.4 171.078 1805.27 166.344C1803.78 159.987 1803.29 153.522 1806.41 147.382C1807.86 144.534 1810.06 143.789 1811.86 145.798C1814.16 148.186 1816.08 150.902 1817.58 153.858C1819.53 158.106 1820.61 162.702 1820.76 167.374C1820.9 172.046 1820.11 176.698 1818.42 181.054C1817.62 183.042 1817.35 185.208 1817.64 187.334C1819.17 194.006 1822.07 200.291 1826.14 205.793C1827.35 198.871 1828.35 192.462 1829.68 186.187C1832.21 174.802 1836.43 163.863 1842.2 153.735C1842.94 152.643 1843.32 151.35 1843.31 150.029C1843.29 148.709 1842.86 147.425 1842.09 146.352C1840.01 143.137 1838.26 139.71 1836.24 136.463C1831.36 128.536 1826.03 121.194 1815.51 120.722C1815.17 120.687 1814.85 120.599 1814.54 120.462C1808.01 118.343 1802.5 113.845 1799.12 107.859C1797.61 105.255 1798.74 103.341 1801.69 103.098C1802.68 103.129 1803.67 103.277 1804.62 103.54C1812.42 105.117 1819.83 107.535 1825.42 112.889C1825.74 108.623 1826.33 104.383 1827.18 100.191C1827.62 98.501 1830.01 97.3388 1831.54 95.9402C1832.96 97.1349 1834.16 98.5802 1835.06 100.205C1837.42 107.723 1837.68 115.163 1833.21 122.212C1832.91 122.849 1832.76 123.547 1832.78 124.251C1832.8 124.955 1832.99 125.644 1833.32 126.265C1837.13 132.523 1841.15 138.634 1845.2 144.735C1845.38 145.051 1847.06 144.922 1847.15 144.695C1849.25 138.769 1852.21 132.947 1853.02 126.847C1854.49 115.533 1848.56 106.899 1840.47 99.5853C1828.91 89.1209 1807.28 82.6595 1792.25 93.6432C1790.53 94.8061 1789.19 96.4431 1788.38 98.3559C1786.93 102.045 1784.88 105.471 1782.33 108.499C1777.61 113.334 1772.64 117.916 1767.45 122.226C1766.33 123.216 1764.19 124.401 1763.29 123.954C1762.56 123.479 1761.93 122.86 1761.44 122.135C1760.96 121.41 1760.62 120.593 1760.46 119.735C1760.04 117.018 1760.22 114.243 1760.99 111.606C1761.76 108.969 1763.11 106.536 1764.93 104.481C1768.65 99.6994 1774.01 97.4769 1779.32 95.1027L1779.56 94.9633L1779.32 95.1027L1773.36 95.1967C1769.45 95.3166 1765.57 94.5129 1762.03 92.8508C1758.49 91.1887 1755.39 88.715 1752.98 85.6305C1749.39 81.1293 1750.82 78.1196 1756.49 77.7737C1760.66 77.4249 1764.85 77.4987 1769 77.9937C1777.12 79.1862 1784.58 81.8993 1788.22 90.265C1789.07 92.2541 1790.15 91.4297 1791.31 90.7356C1803.68 83.296 1816.42 83.5312 1829.42 88.9272C1831.75 89.8854 1834.07 90.9022 1836.38 91.9004C1836 91.2405 1835.54 90.6341 1835 90.0971C1826 82.8858 1817.2 75.1438 1805.34 72.6628C1796.28 70.776 1790.41 64.4188 1785.3 57.3716C1784.34 56.062 1784.89 53.6629 1784.74 51.7671C1786.31 51.6295 1787.89 51.6908 1789.45 51.9494C1798.81 54.6191 1807.47 59.299 1814.85 65.6627C1814.68 63.6231 1814.48 61.8074 1814.39 59.9753C1813.93 54.6162 1815.5 49.284 1818.78 45.033C1821.95 40.9968 1825.71 41.2067 1827.01 45.7191C1828.61 51.2644 1829.61 56.9661 1829.99 62.7248C1830.18 64.9887 1829.81 67.2647 1828.91 69.3484C1828.01 71.432 1826.6 73.2581 1824.82 74.6628C1822.2 76.6461 1822.93 77.2667 1825.11 78.5131C1827.16 79.6051 1829.08 80.9277 1830.83 82.4551C1834.86 86.0819 1838.68 89.9417 1842.26 94.0148C1844.9 97.4987 1847.33 101.143 1849.53 104.927C1850.1 102.332 1850.37 99.6775 1850.33 97.0185C1851.14 86.9264 1855.54 83.2985 1862.23 81.0737C1865.93 79.8535 1867.18 81.0687 1866.89 84.8572C1865.93 94.5158 1863.43 103.525 1855.4 109.917C1854.2 110.883 1853.78 111.399 1854.49 113.05C1856.08 116.551 1856.93 120.341 1856.98 124.183C1857.04 128.026 1856.31 131.837 1854.83 135.379C1851.63 143.179 1847.9 150.789 1844.14 158.391C1840.07 166.05 1837.13 174.257 1835.4 182.759C1838.18 181.362 1840.76 179.598 1843.07 177.513C1849.19 171.724 1854.83 165.415 1861.25 159.974C1863.05 158.684 1864.4 156.868 1865.13 154.775C1865.85 152.682 1865.91 150.415 1865.3 148.285C1864.27 143.265 1863.72 138.16 1863.65 133.038C1863.7 130.202 1864.31 127.404 1865.45 124.807C1866.58 122.21 1868.22 119.864 1870.27 117.906C1872.95 115.169 1875.3 115.722 1876.63 119.193C1876.95 120.135 1877.18 121.103 1877.34 122.085C1879.07 131.346 1878.09 140.909 1874.51 149.615L1879.58 147.929C1885.55 145.967 1891.57 144.851 1897.44 147.908C1898.28 148.292 1899.03 148.851 1899.63 149.547C1900.23 150.243 1900.68 151.06 1900.94 151.943C1900.75 152.871 1900.35 153.745 1899.78 154.502C1899.21 155.259 1898.48 155.881 1897.65 156.323C1893.74 158.517 1889.43 159.91 1884.97 160.422C1880.51 160.935 1876 160.555 1871.69 159.307C1870.38 158.82 1868.96 158.741 1867.6 159.079C1866.25 159.416 1865.03 160.156 1864.11 161.199C1858.3 167.038 1852.48 172.876 1846.51 178.579C1843.42 181.505 1840.49 184.709 1835.86 185.522C1835.21 185.788 1834.64 186.21 1834.19 186.75C1833.74 187.29 1833.43 187.931 1833.29 188.619C1832.35 197.843 1830.83 207.131 1831.12 216.34C1831.46 233.056 1837.12 249.237 1847.26 262.534C1850.83 267.248 1858.79 273.915 1863.08 275.257C1862.22 272.999 1861.23 270.547 1860.35 268.049C1859.32 264.254 1856.89 260.987 1853.56 258.899C1849.23 256.313 1845.88 252.373 1844.02 247.689C1842.28 243.434 1841.5 239.045 1843.68 234.711C1845.75 230.74 1848.61 230.378 1850.48 234.308C1852.74 239.089 1854.7 244.009 1856.33 249.036C1857.38 252.053 1857.89 255.255 1858.65 258.366L1859.73 258.215C1859.66 256.468 1859.67 254.727 1859.54 252.993C1858.83 243.674 1863.6 239.283 1870.62 235.259C1872.33 234.272 1874.31 234.02 1874.19 237.163C1874.1 246.568 1872.69 255.397 1864.25 261.411C1863.72 261.844 1863.29 262.392 1863 263.014C1862.71 263.636 1862.57 264.316 1862.58 265.002C1864.26 274.994 1869.82 280.322 1879.75 281.878C1881.39 282.152 1883.05 282.273 1884.72 282.238C1911.89 281.434 1931.14 268.285 1942.85 244.135C1947.15 235.795 1948.7 226.304 1947.28 217.021C1946.48 212.248 1944.35 208.314 1939.86 206.57C1933.86 204.251 1927.59 202.487 1921.41 200.747C1920.31 200.418 1918.67 201.391 1917.49 202.096C1912.01 205.259 1906.86 208.999 1901.3 211.936C1895.74 214.873 1889.59 216.046 1883.8 212.118C1882.05 210.923 1879.17 209.458 1880.32 206.687C1881.47 205.025 1883.16 203.813 1885.1 203.257C1891.59 200.727 1898.16 198.471 1904.5 196.199C1901.53 193.422 1898.81 191.053 1896.36 188.495C1896.05 188.037 1895.86 187.512 1895.79 186.964C1895.72 186.416 1895.79 185.86 1895.98 185.343C1896.28 184.747 1897.93 184.438 1898.89 184.631C1907.25 186.252 1915.54 188.04 1920.71 195.921C1921.31 196.72 1922.16 197.301 1923.12 197.576C1929.59 199.55 1936.08 201.406 1942.72 203.379C1937.79 196.302 1932.45 189.461 1925.05 184.782C1919.86 181.501 1914.46 178.493 1908.13 178.002C1896.35 177.018 1885.92 180.753 1876.33 187.258C1876 187.562 1875.73 187.93 1875.54 188.342C1875.35 188.753 1875.25 189.199 1875.24 189.652C1875.17 196.265 1871.77 201.306 1867.73 206.02C1863.69 210.733 1859.88 214.942 1855.83 219.29C1854.75 220.18 1853.57 220.923 1852.3 221.501C1851.44 220.196 1850.81 218.757 1850.43 217.243C1849.93 209.185 1852.59 201.253 1857.86 195.147C1858.29 194.65 1858.78 194.216 1859.18 193.711C1859.59 193.207 1859.68 192.903 1859.52 193.172C1855.16 193.007 1850.73 193.01 1846.33 192.598C1845.74 192.422 1845.19 192.108 1844.73 191.68C1844.28 191.252 1843.93 190.723 1843.72 190.136C1843.5 189.447 1844.52 187.962 1845.39 187.41C1848.45 185.112 1851.77 183.193 1855.29 181.695C1860.78 179.84 1866.55 178.67 1871.76 183.104C1872.22 183.337 1872.72 183.465 1873.23 183.481C1873.75 183.497 1874.26 183.4 1874.73 183.197C1877.49 182.052 1880.13 180.626 1882.84 179.358C1892.84 174.754 1903.13 172.603 1914.1 175.378C1913.27 174.369 1912.47 173.368 1911.62 172.37C1909.16 169.761 1907.33 166.629 1906.26 163.211C1905.2 159.793 1904.92 156.177 1905.45 152.638C1905.93 149.655 1907.37 148.926 1909.29 150.716C1917.08 157.308 1922.27 166.447 1923.96 176.506C1924.06 177.661 1924.43 178.778 1925.04 179.766C1925.65 180.754 1926.48 181.586 1927.47 182.195C1936.56 188.852 1944.06 196.777 1948.13 207.648C1951 215.375 1951.95 223.683 1950.89 231.853C1953.24 226.278 1955.38 220.725 1957.15 215.04C1958.21 211.6 1960.18 207.414 1959.05 204.565C1958.1 202.015 1953.66 200.662 1950.66 198.945C1942.27 194.16 1937.92 187.097 1938.46 177.339C1938.57 174.965 1938.21 171.552 1941.23 171.2C1942.78 171.021 1945.1 173.356 1946.37 175.051C1950.39 180.421 1954.09 186.022 1958.14 191.872C1957.57 188.204 1958.24 184.451 1960.06 181.217C1961.87 177.983 1964.72 175.454 1968.15 174.038C1969.39 173.445 1971.64 172.667 1972.11 173.187C1973 174.429 1973.42 175.945 1973.3 177.465C1972.63 186.952 1968.78 195.378 1964.76 203.852C1962.52 208.545 1960.94 213.497 1959.05 218.285C1962.54 216.818 1965.07 214.936 1967.82 213.493C1970.51 211.987 1973.46 211.032 1976.52 210.686C1979.58 210.339 1982.67 210.607 1985.63 211.475C1986.21 211.694 1986.74 212.033 1987.18 212.469C1987.62 212.905 1987.97 213.428 1988.2 214.006C1988.43 214.695 1987.42 216.044 1986.65 216.763C1985.04 218.219 1983.33 219.549 1981.52 220.743C1975.97 224.391 1970.36 228.745 1963.36 227.9C1957.51 227.16 1954.97 229.1 1952.92 234.302C1951.12 238.815 1947.42 242.44 1945.35 246.93C1939.22 260.246 1928.98 271.241 1916.15 278.305C1900.69 286.659 1883.72 288.021 1866.5 286.676C1863.37 286.319 1860.25 285.771 1857.18 285.035C1854.87 284.586 1853.45 284.708 1852.58 287.694C1851.36 290.863 1849.57 293.781 1847.3 296.301C1841.73 302.74 1833.1 302.887 1825.87 305.894C1823.66 306.824 1822.97 305.114 1823.91 302.979ZM1821.93 248.085C1817.89 246.776 1813.65 245.998 1808.7 244.81C1812.97 253.581 1825.12 258.402 1833.49 255.183C1834.01 254.857 1834.48 254.438 1834.85 253.947C1834.41 253.493 1833.91 253.099 1833.36 252.776C1829.48 251.197 1825.76 249.397 1821.84 248.139L1821.93 248.085ZM1811.56 224.581C1814.96 235.396 1822.26 241.052 1831.37 246.034C1827.79 235.875 1820.8 229.911 1811.47 224.635L1811.56 224.581ZM1811.93 149.95C1811.36 149.212 1810.55 148.703 1809.64 148.518C1809.32 148.479 1808.57 149.659 1808.27 150.427C1805.95 157.568 1807.41 164.515 1809.78 171.311C1810.94 174.657 1812.54 177.853 1814.33 182.028C1819.47 170.13 1818.44 159.81 1811.85 150.022L1811.93 149.95ZM1825.33 117.407C1819.37 110.679 1811.69 107.498 1802.45 106.382C1803.37 108.501 1804.7 110.413 1806.38 112.005C1808.05 113.596 1810.02 114.835 1812.18 115.647C1815.98 117.249 1819.99 118.359 1823.92 119.588C1824.69 119.706 1825.49 119.701 1826.26 119.574C1826.01 118.805 1825.64 118.082 1825.15 117.437L1825.33 117.407ZM1833.23 115.129C1834.67 109.994 1834.15 104.504 1831.76 99.7268C1830.71 101.998 1829.92 104.386 1829.41 106.842C1829.34 109.646 1829.61 112.45 1830.2 115.194C1830.49 116.495 1830.87 117.774 1831.34 119.022C1832.04 117.794 1832.61 116.5 1833.05 115.159L1833.23 115.129ZM1767.32 107.042C1765.76 109.896 1764.52 112.915 1763.63 116.045C1763.29 117.133 1763.97 118.526 1764.18 119.793L1767.54 118.151C1773.56 112.964 1780.44 108.024 1784.44 100.235C1784.95 99.3992 1785.33 98.4871 1785.55 97.5327C1785.61 97.1543 1784.22 96.1686 1784.07 96.2544C1778.4 100.151 1770.89 100.866 1767.14 107.072L1767.32 107.042ZM1776.7 83.3187C1770.35 80.511 1763.54 80.5016 1756.73 80.8091C1755.97 80.9656 1755.24 81.2463 1754.56 81.6401C1754.79 82.5114 1755.15 83.3412 1755.63 84.0972C1759.32 88.436 1764.56 91.1496 1770.22 91.65C1774.12 91.8806 1778.15 91.6127 1782.09 91.8697C1786.02 92.1268 1785.18 90.705 1784.02 88.0512C1781.66 86.2681 1779.15 84.6946 1776.52 83.3486L1776.7 83.3187ZM1813.63 70.0832C1810.07 66.9199 1806.33 63.9712 1802.42 61.2528C1798.69 59.0838 1794.81 57.1793 1790.81 55.5533C1790.03 55.3411 1789.23 55.2366 1788.43 55.2425L1788.79 57.7129C1792.48 62.7377 1797.55 66.5845 1803.38 68.7867C1806.41 69.7424 1809.33 70.7809 1812.33 71.7287C1812.8 71.8039 1813.27 71.8147 1813.74 71.7607C1813.71 71.2042 1813.83 70.3701 1813.49 70.0917L1813.63 70.0832ZM1821.61 73.0926C1823.69 71.037 1825.34 68.5919 1826.47 65.8967C1828.39 59.6065 1826.01 53.5133 1824.49 47.4942C1823.59 45.2576 1822.01 45.4765 1821.24 47.0615C1819.47 50.0126 1818.3 53.2863 1817.79 56.6946C1817.89 61.8046 1818.35 66.9017 1819.17 71.9484C1819.18 73.9006 1820.3 74.4691 1821.47 73.1011L1821.61 73.0926ZM1836.61 92.118C1836.75 92.3599 1837.02 92.5267 1837.23 92.7256C1837.17 92.614 1837.24 92.398 1837.2 92.3715C1837.01 92.2733 1836.81 92.1886 1836.61 92.118ZM1855.37 106.09C1859.19 101.705 1861.8 96.4019 1862.95 90.6994C1863.14 89.8927 1863.25 89.0716 1863.3 88.2451C1863.37 86.8652 1863.32 85.5017 1863.38 84.1031L1858.11 85.1374C1856.35 88.0638 1854.92 91.1712 1853.83 94.4061C1853.28 97.9988 1853.11 101.64 1853.31 105.27C1853.38 105.846 1853.54 106.409 1853.78 106.935C1854.36 106.761 1854.9 106.474 1855.37 106.09ZM1895.15 153.97C1895.95 153.441 1896.71 152.859 1897.44 152.228C1896.53 151.56 1895.63 150.343 1894.73 150.32C1890.5 150.075 1886.27 150.252 1882.08 150.849C1878.49 151.922 1875.01 153.333 1871.69 155.064L1872.13 156.221C1879.94 157.172 1887.76 158.113 1895.13 153.933L1895.15 153.97ZM1872.57 145.776C1875.18 138.071 1875.72 129.81 1874.14 121.823C1873.66 120.754 1873.08 119.737 1872.39 118.79C1870.63 121.893 1869.03 125.083 1867.6 128.349C1865.49 134.035 1866.79 139.807 1867.77 145.493C1868.14 147.539 1868.74 149.524 1869.23 151.544C1870.52 149.731 1871.64 147.8 1872.57 145.776ZM1809.74 184.407C1802.12 179.635 1793.25 177.262 1784.28 177.595C1782.21 177.699 1780.18 178.079 1778.12 178.327C1787.56 183.144 1796.63 188.725 1807.53 188.954C1807.86 189 1808.2 188.983 1808.52 188.905C1810.13 188.27 1811.72 187.58 1813.31 186.908C1812.15 185.986 1810.94 185.126 1809.69 184.333L1809.74 184.407ZM1865.08 256.638C1867.1 254.484 1868.67 251.946 1869.7 249.174C1870.72 246.401 1871.18 243.45 1871.04 240.496C1871.04 240.246 1869.64 239.665 1869.18 239.885C1867.51 240.608 1866.06 241.752 1864.97 243.204C1863.87 244.657 1863.18 246.369 1862.94 248.173C1862.73 251.104 1862.72 254.045 1862.9 256.978C1863.91 256.842 1864.75 256.956 1865.14 256.731L1865.08 256.638ZM1899.81 201.509C1895.28 202.913 1890.83 204.64 1886.34 206.262C1885.61 206.564 1884.9 206.914 1884.22 207.312C1884.67 208.12 1885.27 208.836 1885.98 209.42C1888.2 210.546 1890.67 211.073 1893.14 210.948C1895.62 210.823 1898.02 210.05 1900.11 208.707C1905.49 205.8 1910.69 202.595 1916.04 199.507C1910.24 197.398 1905.06 199.87 1899.81 201.509ZM1901.83 187.545L1901.24 188.831C1905.1 192.652 1909.48 195.259 1915.14 194.895L1915.66 193.699L1901.83 187.545ZM1867.23 184.008C1861.62 182.407 1856.53 184.229 1850.9 186.689L1849.05 189.147C1850.13 189.438 1851.32 190.166 1852.3 189.944C1857.39 188.767 1862.44 187.39 1867.49 186.013C1867.93 185.795 1868.32 185.487 1868.63 185.108C1868.16 184.732 1867.75 184.15 1867.23 184.008ZM1867.09 191.53C1859.39 197.336 1853.43 204.973 1853.95 216.304C1860.49 209.181 1867.5 203.522 1871.08 195.055C1871.66 193.206 1872.07 191.308 1872.31 189.383C1870.48 189.855 1868.71 190.552 1867.04 191.456L1867.09 191.53ZM1908.65 154.016C1907.93 162.718 1911.65 169.251 1921.12 176.433C1919.01 167.961 1914.69 160.199 1908.6 153.942L1908.65 154.016ZM1966.19 193.424C1967.86 188.592 1969.17 183.617 1970.55 178.677C1970.62 177.881 1970.56 177.079 1970.37 176.302L1968.48 176.799C1963.08 180.88 1960.42 185.868 1961.35 192.422C1961.71 194.97 1962.23 197.498 1962.68 200.04C1964.04 197.943 1965.22 195.729 1966.19 193.424ZM1943.9 176.853C1943.38 176.373 1942.83 175.927 1942.26 175.516C1941.95 176.086 1941.73 176.699 1941.6 177.335C1941.46 183.741 1943.02 189.488 1948.45 193.495C1951 195.327 1953.68 196.928 1956.98 199.089C1954.6 190.646 1950.1 182.955 1943.89 176.757L1943.9 176.853ZM1960.79 225.166C1967.1 225.966 1972.3 223.137 1977.24 219.765C1979.52 218.446 1981.81 217.127 1984.09 215.808C1984.47 215.53 1984.8 215.203 1985.09 214.835C1984.61 214.54 1984.1 214.302 1983.57 214.127C1979.03 213.053 1974.25 213.813 1970.28 216.243C1966.71 218.302 1963.34 220.648 1959.91 222.9C1959.41 223.335 1958.98 223.83 1958.6 224.373C1959.3 224.692 1960.04 224.926 1960.79 225.07L1960.79 225.166ZM1854.65 253.283C1852.78 248.237 1850.92 243.181 1848.97 238.16C1848.5 237.366 1847.91 236.651 1847.22 236.041C1846.62 236.938 1846.17 237.926 1845.89 238.967C1845.29 245.516 1848.75 250.045 1853.16 254.045L1854.65 253.283ZM1827.59 272.725C1827.14 273.172 1826.8 273.724 1826.61 274.332C1828.51 276.038 1830.3 278.481 1832.56 279.136C1837.09 280.234 1841.69 281.041 1846.33 281.552C1841.27 276.089 1834.27 274.724 1827.56 272.746L1827.59 272.725ZM1847.15 281.599L1846.75 281.633L1846.83 281.763C1846.83 281.763 1847.04 281.663 1847.12 281.621L1847.15 281.599ZM1849.01 287.396C1841.98 291.806 1832.9 292.383 1828.52 300.792C1839.11 300.087 1846.85 295.096 1848.98 287.417L1849.01 287.396Z" fill="black" fill-opacity="0.08"/>
</g>
<defs>
<clipPath id="clip0_1_318">
<rect width="132.34" height="66.6102" fill="white" transform="matrix(-0.866025 0.5 0.5 0.866025 84.6099 249.624)"/>
</clipPath>
<clipPath id="clip1_1_318">
<rect width="195" height="262" fill="white" transform="matrix(-0.866025 0.5 0.5 0.866025 1872.88 0.800781)"/>
</clipPath>
</defs>
</svg>
